<svg width="86" height="86" viewBox="0 0 86 86" fill="none" xmlns="http://www.w3.org/2000/svg">
<mask id="mask0_247_24" style="mask-type:luminance" maskUnits="userSpaceOnUse" x="0" y="0" width="86" height="86">
<path d="M86 0H0V86H86V0Z" fill="white"/>
</mask>
<g mask="url(#mask0_247_24)">
<path d="M72.4223 12.9854C74.0477 14.4861 75.5804 16.0502 76.9297 17.805C77.0633 17.9713 77.1969 18.1375 77.3345 18.309C78.4394 19.6936 79.3861 21.1534 80.289 22.6762C80.3584 22.7914 80.4276 22.9068 80.499 23.0256C84.2982 29.3937 86.0782 36.6159 86.0629 43.9871C86.0628 44.236 86.0628 44.236 86.0628 44.4898C86.0559 47.1839 85.8975 49.765 85.3282 52.4065C85.2931 52.5757 85.2579 52.7447 85.2217 52.9188C83.242 62.2349 77.7989 71.1167 70.211 76.93C70.0131 77.0861 69.8155 77.2423 69.6178 77.3986C66.0725 80.1649 59.9276 84.6305 55.2125 84.293C54.4152 84.0991 54.0268 83.8741 53.582 83.1449C53.3882 82.5636 53.3962 82.1194 53.4002 81.5062C53.4008 81.3914 53.4014 81.2766 53.4018 81.1582C53.4031 80.9085 53.4047 80.659 53.4065 80.4093C53.4094 80.0111 53.4111 79.6131 53.4126 79.215C53.4167 78.0828 53.4226 76.9506 53.4302 75.8185C53.4348 75.1252 53.4375 74.432 53.4394 73.7387C53.4404 73.4772 53.4421 73.2158 53.4444 72.9544C53.457 71.5474 53.4174 70.1618 53.2679 68.7619C53.2553 68.6398 53.2426 68.5176 53.2294 68.3918C52.9655 66.1579 51.9888 64.3581 50.5585 62.6527C51.4426 62.4733 52.3274 62.2993 53.2146 62.1357C57.1507 61.3986 60.8341 60.3435 63.996 57.7815C64.1266 57.6785 64.2572 57.5754 64.3918 57.4692C67.9924 54.4698 69.4728 49.7145 69.9747 45.2089C70.4093 40.4114 69.7812 36.0889 67.0195 32.0823C66.7026 31.7215 66.3871 31.3813 66.0313 31.0588C65.7288 30.5426 65.8933 30.1343 66.0117 29.5628C66.0743 29.2559 66.0743 29.2559 66.1383 28.9427C66.1831 28.7282 66.228 28.5136 66.2742 28.2926C66.8484 25.3111 66.4294 22.3055 65.3398 19.4847C61.2505 19.2105 57.2151 21.486 53.918 23.684C53.5967 23.6914 53.5968 23.6914 53.235 23.6413C53.1008 23.6229 52.9668 23.6044 52.8286 23.5855C52.1279 23.4703 51.4328 23.3319 50.7371 23.1905C45.1613 22.116 39.3163 22.1158 33.7864 23.4853C32.7962 23.7204 32.0099 23.744 31.0801 23.2528C30.9153 23.1422 30.7506 23.0315 30.5807 22.9176C27.5443 20.9556 24.1564 19.3731 20.4922 19.4847C19.484 22.6977 18.9961 25.6031 19.6937 28.9427C19.7354 29.1474 19.7773 29.3521 19.8203 29.5628C19.8653 29.7672 19.9104 29.9716 19.9567 30.1823C19.9882 30.7386 19.9882 30.7386 19.7579 31.1382C19.6434 31.2593 19.5289 31.3803 19.4109 31.505C16.2444 35.1688 15.5309 39.7744 15.8363 44.4588C16.2352 49.4956 17.8596 54.2927 21.7155 57.7094C22.5347 58.3917 23.4278 58.9405 24.3555 59.4613C24.6321 59.6188 24.6321 59.6188 24.9145 59.7795C27.4651 61.1408 30.2135 61.7663 33.0435 62.2511C33.5532 62.3387 34.0616 62.4327 34.5701 62.5267C34.8045 62.5689 35.039 62.611 35.2734 62.6527C35.2143 62.7224 35.1552 62.7922 35.0943 62.864C33.9827 64.2512 33.1336 65.7595 32.9324 67.5342C32.8313 68.073 32.8313 68.073 32.5859 68.5315C31.7251 68.9925 30.8545 69.2015 29.8984 69.3715C29.646 69.4208 29.646 69.4208 29.3886 69.4712C26.7328 69.835 24.3791 69.4254 22.1719 67.8597C21.0794 66.9822 20.3567 65.9206 19.607 64.7573C18.4127 62.9281 16.8088 61.5225 14.6861 60.8831C13.6522 60.6856 12.5183 60.5874 11.5898 61.141C11.809 61.8135 12.0369 62.1347 12.6081 62.5477C12.7435 62.6486 12.8788 62.7495 13.0182 62.8535C13.2847 63.0462 13.5519 63.2378 13.82 63.4283C15.9517 64.9942 16.9962 67.086 18.0593 69.4285C19.3134 72.1057 21.3968 73.7473 24.133 74.7419C26.7421 75.501 29.7491 75.1492 32.418 74.9145C32.4307 76.0233 32.4396 77.1323 32.4456 78.2412C32.4482 78.6183 32.4516 78.9956 32.4559 79.3727C32.4621 79.9151 32.465 80.4574 32.4671 81C32.4697 81.1684 32.4723 81.3366 32.475 81.5101C32.4754 82.9722 32.4754 82.9722 31.914 83.6488C31.2554 84.2251 30.6669 84.3785 29.7901 84.365C29.0015 84.2767 28.2822 83.9769 27.5469 83.6908C27.3716 83.6235 27.1965 83.5562 27.0159 83.4869C22.0489 81.5312 17.7853 78.7314 13.7734 75.2503C13.5412 75.0496 13.5412 75.0496 13.3043 74.8448C12.5559 74.1859 11.8644 73.5145 11.223 72.7511C11.0071 72.499 10.7836 72.2532 10.5551 72.0124C8.5214 69.8663 6.8022 67.4223 5.37498 64.8363C5.29752 64.6978 5.22006 64.5593 5.14025 64.4167C2.07934 58.9073 -0.00180544 52.5608 -0.0341401 46.2062C-0.0359189 45.9733 -0.0359189 45.9733 -0.0377335 45.7358C-0.0762107 39.2197 -0.0762107 39.2197 0.503884 36.4495C0.556621 36.1955 0.556621 36.1955 0.610424 35.9364C2.15946 28.6844 5.28984 22.0128 10.2461 16.4613C10.4309 16.2488 10.4309 16.2488 10.6194 16.0321C12.2027 14.2334 13.8849 12.5448 15.789 11.0863C15.8994 11.0004 16.0097 10.9145 16.1234 10.826C18.1484 9.25498 20.2495 7.9285 22.5078 6.7191C22.6249 6.65551 22.7418 6.59195 22.8624 6.52644C37.373 -1.30808 55.9699 0.473548 72.4223 12.9854Z" fill="white"/>
</g>
</svg>
