<svg width="230" height="64" viewBox="0 0 230 64" fill="none" xmlns="http://www.w3.org/2000/svg">
<path d="M19.888 62.232C14.704 62.232 10.512 60.504 7.312 57.048C4.112 53.592 1.744 48.376 0.208 41.4L3.472 40.536C4.944 44.056 6.576 46.68 8.368 48.408C10.224 50.072 12.624 50.904 15.568 50.904C18 50.904 20.176 50.36 22.096 49.272C24.016 48.184 25.52 46.712 26.608 44.856C27.76 42.936 28.336 40.824 28.336 38.52C28.336 36.088 27.632 34.872 26.224 34.872C25.136 34.872 23.792 35.064 22.192 35.448C20.656 35.832 19.12 36.216 17.584 36.6C16.048 36.984 14.8 37.176 13.84 37.176C12.56 37.176 11.216 36.568 9.808 35.352C8.4 34.072 7.088 32.408 5.872 30.36C4.656 28.248 3.664 26.008 2.896 23.64C2.192 21.208 1.84 18.84 1.84 16.536C1.84 11.416 3.216 7.544 5.968 4.92C8.784 2.232 12.592 0.887999 17.392 0.887999C25.584 0.887999 31.088 6.168 33.904 16.728L30.64 17.592C29.616 15.416 28.208 13.848 26.416 12.888C24.624 11.928 22.608 11.448 20.368 11.448C16.848 11.448 14.096 12.408 12.112 14.328C10.192 16.248 9.232 19.032 9.232 22.68C9.232 23.896 9.424 24.76 9.808 25.272C10.256 25.784 10.736 26.04 11.248 26.04C12.528 26.04 14 25.784 15.664 25.272C17.392 24.76 19.056 24.28 20.656 23.832C22.32 23.32 23.664 23.064 24.688 23.064C26.032 23.064 27.472 23.992 29.008 25.848C30.544 27.64 31.856 30.072 32.944 33.144C34.096 36.216 34.672 39.608 34.672 43.32C34.672 49.272 33.488 53.912 31.12 57.24C28.752 60.568 25.008 62.232 19.888 62.232ZM51.1098 63.192C49.5098 62.616 47.7818 62.008 45.9258 61.368C44.1338 60.664 42.5978 59.992 41.3178 59.352C40.0378 58.712 39.3978 58.264 39.3978 58.008C39.3978 57.752 39.6218 56.664 40.0698 54.744C40.5818 52.76 41.2218 50.264 41.9898 47.256C42.8218 44.184 43.6858 40.856 44.5818 37.272C45.5418 33.688 46.5018 30.136 47.4618 26.616C48.4218 23.032 49.3178 19.768 50.1498 16.824C50.9818 13.816 51.6538 11.416 52.1658 9.62399H47.1738L42.8538 3.192L43.4297 1.65599H63.2058L68.7738 9.72C69.5418 12.856 70.3418 16.408 71.1738 20.376C72.0058 24.28 72.8378 28.28 73.6698 32.376C74.5018 36.408 75.2698 40.152 75.9738 43.608C76.6778 47.064 77.2538 49.944 77.7018 52.248C78.1498 54.552 78.4058 55.864 78.4698 56.184C78.5978 57.016 78.9498 57.656 79.5258 58.104C80.1018 58.552 81.1258 59.16 82.5978 59.928L81.4458 63C79.5258 62.36 77.6058 61.624 75.6858 60.792C73.8298 59.96 72.2938 59.16 71.0778 58.392C69.8618 57.624 69.2218 57.08 69.1578 56.76C68.9658 54.712 68.7418 52.632 68.4858 50.52C68.2298 48.344 67.9418 46.2 67.6218 44.088C67.0458 44.024 66.4698 43.992 65.8938 43.992C63.5898 43.992 61.1898 44.248 58.6938 44.76C56.1978 45.272 53.9258 46.2 51.8778 47.544C51.4298 49.336 50.9498 51.16 50.4378 53.016C49.9898 54.872 49.5417 56.728 49.0938 58.584L52.2618 60.12L51.1098 63.192ZM59.2698 36.216C61.8298 36.216 64.3258 36.92 66.7578 38.328C65.9898 33.208 65.1258 28.248 64.1658 23.448C63.2698 18.584 62.4698 14.264 61.7657 10.488C60.8698 13.752 59.8138 17.592 58.5978 22.008C57.4458 26.424 56.1658 31.32 54.7578 36.696C56.2938 36.376 57.7978 36.216 59.2698 36.216ZM96.4848 63.192C94.8848 62.616 93.1568 62.008 91.3008 61.368C89.5088 60.664 87.9728 59.992 86.6928 59.352C85.4128 58.712 84.7728 58.264 84.7728 58.008C84.7728 57.752 84.9968 56.664 85.4448 54.744C85.9568 52.76 86.5968 50.264 87.3648 47.256C88.1968 44.184 89.0608 40.856 89.9568 37.272C90.9168 33.688 91.8768 30.136 92.8368 26.616C93.7968 23.032 94.6928 19.768 95.5248 16.824C96.3568 13.816 97.0288 11.416 97.5408 9.62399H92.5488L88.2288 3.192L88.8047 1.65599H108.581L114.149 9.72C114.917 12.856 115.717 16.408 116.549 20.376C117.381 24.28 118.213 28.28 119.045 32.376C119.877 36.408 120.645 40.152 121.349 43.608C122.053 47.064 122.629 49.944 123.077 52.248C123.525 54.552 123.781 55.864 123.845 56.184C123.973 57.016 124.325 57.656 124.901 58.104C125.477 58.552 126.501 59.16 127.973 59.928L126.821 63C124.901 62.36 122.981 61.624 121.061 60.792C119.205 59.96 117.669 59.16 116.453 58.392C115.237 57.624 114.597 57.08 114.533 56.76C114.341 54.712 114.117 52.632 113.861 50.52C113.605 48.344 113.317 46.2 112.997 44.088C112.421 44.024 111.845 43.992 111.269 43.992C108.965 43.992 106.565 44.248 104.069 44.76C101.573 45.272 99.3008 46.2 97.2528 47.544C96.8048 49.336 96.3248 51.16 95.8128 53.016C95.3648 54.872 94.9167 56.728 94.4688 58.584L97.6368 60.12L96.4848 63.192ZM104.645 36.216C107.205 36.216 109.701 36.92 112.133 38.328C111.365 33.208 110.501 28.248 109.541 23.448C108.645 18.584 107.845 14.264 107.141 10.488C106.245 13.752 105.189 17.592 103.973 22.008C102.821 26.424 101.541 31.32 100.133 36.696C101.669 36.376 103.173 36.216 104.645 36.216ZM148.503 62.808C144.279 61.4 141.079 60.088 138.903 58.872C136.727 57.656 135.639 56.664 135.639 55.896C135.639 55.192 135.703 54.456 135.831 53.688C135.959 52.92 136.087 51.8 136.215 50.328C136.343 48.856 136.407 46.744 136.407 43.992V21.144C136.407 16.216 136.759 12.376 137.463 9.62399H136.119C134.711 9.62399 133.335 9.91199 131.991 10.488C130.711 11.064 129.783 11.704 129.207 12.408H127.191L120.95 3.192L121.622 1.65599H156.855L161.463 8.376L156.663 12.408H155.031C153.815 11.256 152.727 10.52 151.767 10.2C150.871 9.816 149.655 9.62399 148.119 9.62399H147.639C146.615 12.248 146.103 15.928 146.103 20.664V46.104C146.103 48.856 146.007 51.064 145.815 52.728C145.687 54.328 145.623 55.576 145.623 56.472C145.623 57.56 146.999 58.744 149.751 60.024L148.503 62.808ZM180.693 62.904C176.469 61.496 173.269 60.184 171.093 58.968C168.917 57.752 167.829 56.76 167.829 55.992C167.829 55.288 167.893 54.552 168.021 53.784C168.149 53.016 168.277 51.896 168.405 50.424C168.533 48.952 168.597 46.84 168.597 44.088V25.656C168.597 22.584 168.725 19.576 168.981 16.632C169.237 13.688 169.717 11.352 170.421 9.62399H166.965L162.261 3.192L162.933 1.65599H175.221L180.597 9.144C179.893 11.128 179.317 13.56 178.869 16.44C178.485 19.32 178.293 22.552 178.293 26.136V27.672C179.381 27.352 180.533 27.096 181.749 26.904C182.965 26.712 184.149 26.616 185.301 26.616C187.861 26.616 190.357 27.32 192.789 28.728V25.656C192.789 22.584 192.917 19.576 193.173 16.632C193.429 13.688 193.909 11.352 194.613 9.62399H191.157L186.453 3.192L187.125 1.65599H199.413L204.789 9.144C204.085 11.128 203.509 13.56 203.061 16.44C202.677 19.32 202.485 22.552 202.485 26.136V46.2C202.485 48.952 202.389 51.16 202.197 52.824C202.069 54.424 202.005 55.672 202.005 56.568C202.005 57.656 203.381 58.84 206.133 60.12L204.885 62.904C200.661 61.496 197.461 60.184 195.285 58.968C193.109 57.752 192.021 56.76 192.021 55.992C192.021 55.288 192.085 54.552 192.213 53.784C192.341 53.016 192.469 51.896 192.597 50.424C192.725 48.952 192.789 46.84 192.789 44.088V34.392C192.533 34.392 192.245 34.392 191.925 34.392C189.685 34.392 187.349 34.648 184.917 35.16C182.549 35.608 180.341 36.472 178.293 37.752V46.2C178.293 48.952 178.197 51.16 178.005 52.824C177.877 54.424 177.813 55.672 177.813 56.568C177.813 57.656 179.189 58.84 181.941 60.12L180.693 62.904ZM228.055 63C223.831 61.592 220.631 60.28 218.455 59.064C216.279 57.848 215.191 56.856 215.191 56.088C215.191 55.384 215.255 54.648 215.383 53.88C215.511 53.112 215.639 51.992 215.767 50.52C215.895 49.048 215.959 46.936 215.959 44.184V25.656C215.959 22.584 216.087 19.576 216.343 16.632C216.599 13.688 217.079 11.352 217.783 9.62399H214.327L209.623 3.192L210.295 1.65599H222.583L227.959 9.144C227.255 11.128 226.679 13.56 226.231 16.44C225.847 19.32 225.655 22.552 225.655 26.136V46.296C225.655 49.048 225.559 51.256 225.367 52.92C225.239 54.52 225.175 55.768 225.175 56.664C225.175 57.752 226.551 58.936 229.303 60.216L228.055 63Z" fill="white"/>
</svg>
