<svg width="862" height="92" viewBox="0 0 862 92" fill="none" xmlns="http://www.w3.org/2000/svg">
<path d="M34.3971 1.25839H71.7731L111.453 90.8584H63.0691L49.6291 61.1624H21.4691L9.94912 90.8584H0.605117L34.3971 1.25839ZM46.0451 53.3544L34.3971 27.3704L24.2851 53.3544H46.0451ZM116.51 1.25839H209.566V8.81039H161.566V41.9624H185.118V49.6424H161.566V83.1784H209.566V90.8584H116.51V1.25839ZM216.885 1.25839L302.517 1.25839C306.698 1.25839 310.538 2.32506 314.037 4.45839C317.621 6.50639 320.437 9.32239 322.485 12.9064C324.618 16.4051 325.685 20.2451 325.685 24.4264C325.685 29.9731 323.978 35.0077 320.565 39.5304C317.152 44.0531 312.842 46.9544 307.637 48.2344C312.245 49.5144 316 51.9464 318.901 55.5304C321.888 59.1144 323.381 63.1677 323.381 67.6904V90.8584H280.501V63.0824C280.501 60.3517 279.989 58.2184 278.965 56.6824C277.77 54.8904 276.405 53.5677 274.869 52.7144C273.162 51.7757 271.242 51.0931 269.109 50.6664C266.89 50.2397 264.8 49.9837 262.837 49.8984L259.381 49.7704V90.8584H216.885V1.25839ZM263.861 42.3464C266.933 42.3464 269.749 41.6211 272.309 40.1704C274.954 38.6344 277.002 36.5864 278.453 34.0264C279.989 31.3811 280.757 28.5651 280.757 25.5784C280.757 22.5064 279.989 19.6904 278.453 17.1304C277.002 14.4851 274.954 12.3944 272.309 10.8584C269.749 9.32239 266.933 8.55439 263.861 8.55439H259.381V42.4744L263.861 42.3464ZM390.164 91.4984C378.729 91.4984 368.404 89.7491 359.188 86.2504C349.972 82.7517 342.676 77.5891 337.3 70.7624C332.009 63.8504 329.364 55.5731 329.364 45.9304C329.364 36.3731 332.052 28.1811 337.428 21.3544C342.804 14.5277 350.057 9.36506 359.188 5.86639C368.404 2.28239 378.729 0.490391 390.164 0.490391C401.513 0.490391 411.753 2.28239 420.884 5.86639C430.1 9.36506 437.353 14.5277 442.644 21.3544C448.02 28.1811 450.708 36.3731 450.708 45.9304C450.708 55.5731 448.02 63.8504 442.644 70.7624C437.353 77.5891 430.1 82.7517 420.884 86.2504C411.753 89.7491 401.513 91.4984 390.164 91.4984ZM390.164 83.9464C393.748 83.9464 396.393 82.3251 398.1 79.0824C399.551 76.6077 400.532 72.2131 401.044 65.8984C401.3 62.5704 401.428 55.9144 401.428 45.9304C401.428 35.8611 401.215 28.7357 400.788 24.5544C400.532 19.4344 399.593 15.5517 397.972 12.9064C396.265 9.66373 393.663 8.04239 390.164 8.04239C386.58 8.04239 383.892 9.66373 382.1 12.9064C380.649 15.4664 379.711 19.3491 379.284 24.5544C378.943 28.9917 378.772 36.1171 378.772 45.9304C378.772 57.0237 378.9 63.6797 379.156 65.8984C379.497 71.7864 380.436 76.1811 381.972 79.0824C383.764 82.3251 386.495 83.9464 390.164 83.9464ZM521.299 82.5384C527.699 82.5384 532.776 79.9357 536.531 74.7304C540.286 69.5251 542.718 63.2104 543.827 55.7864H551.763C550.568 65.0024 547.539 72.8531 542.675 79.3384C539.944 82.9224 536.83 85.6104 533.331 87.4024C529.918 89.1091 526.12 90.2184 521.939 90.7304C517.843 91.2424 512.467 91.4984 505.811 91.4984C496.424 91.4984 488.787 90.6024 482.899 88.8104C477.096 86.9331 472.104 83.9037 467.923 79.7224C459.731 71.5304 455.635 60.2664 455.635 45.9304C455.635 30.8264 459.304 19.6051 466.643 12.2664C471.422 7.48773 476.755 4.33039 482.643 2.79439C488.531 1.25839 496.254 0.490391 505.811 0.490391C514.6 0.490391 521.726 1.13039 527.187 2.41039C532.734 3.60506 537.256 6.20772 540.755 10.2184C543.656 13.5464 545.918 17.5571 547.539 22.2504C549.16 26.9437 550.099 31.5944 550.355 36.2024H543.059C542.718 32.3624 541.779 28.4371 540.243 24.4264C538.792 20.3304 536.488 16.8317 533.331 13.9304C530.174 10.9437 526.163 9.45039 521.299 9.45039C516.691 9.45039 512.979 11.4557 510.163 15.4664C507.688 18.6237 505.811 23.2744 504.531 29.4184C503.592 34.1117 503.123 39.6157 503.123 45.9304C503.123 55.9144 504.318 63.9784 506.707 70.1224C509.779 78.3997 514.643 82.5384 521.299 82.5384ZM581.397 1.25839H618.773L658.453 90.8584H610.069L596.629 61.1624H568.469L556.949 90.8584H547.605L581.397 1.25839ZM593.045 53.3544L581.397 27.3704L571.285 53.3544H593.045ZM725.594 33.3864C735.749 36.1171 743.343 39.7437 748.378 44.2664C753.413 48.7037 755.93 54.5064 755.93 61.6744C755.93 67.3917 754.138 72.5117 750.554 77.0344C746.97 81.5571 741.679 85.0984 734.682 87.6584C727.77 90.2184 719.365 91.4984 709.466 91.4984C697.775 91.4984 687.45 90.0051 678.49 87.0184C669.615 83.9464 662.661 80.2344 657.626 75.8824L661.85 70.1224C666.287 73.6211 671.877 76.6077 678.618 79.0824C685.359 81.5571 692.613 82.7944 700.378 82.7944C705.413 82.7944 709.21 82.0691 711.77 80.6184C714.415 79.1677 715.738 77.1197 715.738 74.4744C715.738 69.8664 711.173 66.2824 702.042 63.7224L685.402 58.8584C676.357 56.1277 669.359 52.3304 664.41 47.4664C659.546 42.6024 657.114 36.8424 657.114 30.1864C657.114 24.6397 658.863 19.6051 662.362 15.0824C665.861 10.5597 670.938 7.01839 677.594 4.45839C684.335 1.81306 692.399 0.490391 701.786 0.490391C710.746 0.490391 718.981 1.51439 726.49 3.56239C734.085 5.61039 740.271 8.08506 745.05 10.9864L740.826 16.8744C736.815 14.5704 731.994 12.6077 726.362 10.9864C720.815 9.36506 714.97 8.55439 708.826 8.55439C703.45 8.55439 699.311 9.40773 696.41 11.1144C693.594 12.7357 692.186 14.9971 692.186 17.8984C692.186 20.1171 693.253 22.0797 695.386 23.7864C697.519 25.4077 701.573 27.0291 707.546 28.6504L725.594 33.3864ZM783.403 8.81039L749.739 8.81039V1.25839L861.995 1.25839V8.81039H828.203V90.8584H783.403V8.81039Z" fill="#CCCCCC"/>
</svg>
