<svg width="60" height="60" viewBox="0 0 60 60" fill="none" xmlns="http://www.w3.org/2000/svg">
<g clip-path="url(#clip0_607_15)">
<path d="M29.9561 -0.0368644C30.0753 -0.0366119 30.1946 -0.0363593 30.3175 -0.0360991C32.0295 -0.0302783 33.7091 -0.000876363 35.3906 0.351319C35.5049 0.374602 35.6191 0.397884 35.7368 0.421872C40.3139 1.37931 44.5839 3.21044 48.2813 6.09351C48.3849 6.17236 48.4885 6.25122 48.5953 6.33246C50.4219 7.75055 52.1357 9.42613 53.5547 11.2498C53.6456 11.3621 53.7366 11.4745 53.8303 11.5903C57.8769 16.6776 60.0514 23.1382 60.037 29.6162C60.0366 29.9607 60.0394 30.3051 60.0424 30.6496C60.0476 32.2167 59.9063 33.728 59.6484 35.2732C59.6154 35.4731 59.6154 35.4731 59.5816 35.677C58.7583 40.2603 56.7682 44.6177 53.9063 48.281C53.8173 48.3949 53.7283 48.5088 53.6366 48.6262C52.1912 50.4285 50.5739 52.1339 48.75 53.5544C48.6403 53.644 48.5307 53.7336 48.4177 53.8259C44.6732 56.8244 40.0834 58.7591 35.3906 59.6482C35.2958 59.6674 35.2009 59.6866 35.1032 59.7063C31.5828 60.3944 27.5231 60.2661 24.0234 59.531C23.845 59.4943 23.845 59.4943 23.6629 59.4568C19.3101 58.5319 15.2245 56.6448 11.7188 53.906C11.6049 53.817 11.491 53.7281 11.3736 53.6364C9.57131 52.1909 7.86591 50.5737 6.44532 48.7498C6.31095 48.5852 6.31095 48.5852 6.17387 48.4174C3.17541 44.673 1.24067 40.0831 0.351572 35.3904C0.332387 35.2955 0.313202 35.2007 0.293436 35.103C-0.347533 31.8233 -0.333362 27.8793 0.351572 24.6091C0.374855 24.4949 0.398137 24.3806 0.422125 24.2629C1.60419 18.6121 4.18664 13.3855 8.22865 9.23754C8.43657 9.02416 8.64257 8.80903 8.84858 8.59381C9.6808 7.73368 10.5496 6.96383 11.5097 6.24949C11.7221 6.091 11.9324 5.92992 12.1426 5.76849C13.1278 5.02005 14.1522 4.37065 15.2312 3.76606C15.4495 3.64339 15.6661 3.5181 15.8826 3.39224C20.1717 0.982034 25.0766 -0.0554446 29.9561 -0.0368644ZM11.6341 17.6859C11.0304 18.4513 10.7276 19.1467 10.7343 20.1263C10.7335 20.214 10.7327 20.3018 10.7318 20.3922C10.7296 20.6844 10.7299 20.9765 10.7302 21.2687C10.7291 21.479 10.7279 21.6892 10.7266 21.8995C10.7235 22.4695 10.7227 23.0395 10.7225 23.6095C10.7222 23.9661 10.7215 24.3227 10.7205 24.6793C10.7173 25.9247 10.7158 27.1702 10.7161 28.4156C10.7163 29.5742 10.7126 30.7328 10.7071 31.8914C10.7025 32.8879 10.7006 33.8845 10.7008 34.881C10.7009 35.4754 10.6999 36.0697 10.6962 36.6641C10.6928 37.2237 10.6928 37.7831 10.6953 38.3427C10.6957 38.5471 10.6948 38.7516 10.6927 38.956C10.6795 40.311 10.7876 41.4262 11.751 42.4785C12.5517 43.2477 13.4013 43.6072 14.5156 43.6089C14.6279 43.6094 14.7402 43.6098 14.8559 43.6103C15.0395 43.6101 15.0395 43.6101 15.2269 43.61C15.3577 43.6103 15.4885 43.6107 15.6232 43.611C16.0624 43.612 16.5016 43.6122 16.9408 43.6124C17.2553 43.6129 17.5698 43.6135 17.8844 43.6142C18.7396 43.6157 19.5948 43.6164 20.45 43.617C20.9842 43.6173 21.5184 43.6178 22.0527 43.6183C23.5326 43.6197 25.0125 43.6209 26.4924 43.6213C26.587 43.6214 26.6817 43.6214 26.7793 43.6214C26.8742 43.6214 26.9691 43.6215 27.0669 43.6215C27.2592 43.6216 27.4515 43.6216 27.6438 43.6217C27.7391 43.6217 27.8345 43.6217 27.9328 43.6217C29.4779 43.6222 31.023 43.6242 32.568 43.627C34.1553 43.6298 35.7425 43.6312 37.3298 43.6313C38.2206 43.6315 39.1114 43.6321 40.0022 43.6343C40.7608 43.6361 41.5195 43.6367 42.2781 43.6357C42.6649 43.6352 43.0516 43.6355 43.4384 43.637C43.8585 43.6385 44.2786 43.6378 44.6987 43.6366C44.8198 43.6375 44.941 43.6385 45.0658 43.6394C46.2661 43.6313 47.279 43.3821 48.1641 42.5388C48.9102 41.7217 49.2733 40.8561 49.2658 39.7464C49.2666 39.659 49.2674 39.5716 49.2682 39.4816C49.2704 39.1914 49.2701 38.9013 49.2698 38.6111C49.2709 38.402 49.2721 38.1928 49.2734 37.9837C49.2765 37.4173 49.2773 36.851 49.2776 36.2846C49.2778 35.9303 49.2786 35.5759 49.2795 35.2215C49.2827 33.9836 49.2842 32.7458 49.2839 31.5079C49.2837 30.3566 49.2874 29.2053 49.293 28.0539C49.2976 27.0633 49.2994 26.0728 49.2992 25.0822C49.2991 24.4915 49.3001 23.9008 49.3038 23.3101C49.3073 22.7541 49.3073 22.1982 49.3047 21.6422C49.3044 21.4391 49.3052 21.236 49.3073 21.0329C49.3206 19.6817 49.2093 18.5701 48.249 17.5209C47.4482 16.7518 46.5987 16.3923 45.4844 16.3906C45.3721 16.3902 45.2598 16.3897 45.1441 16.3892C45.0217 16.3893 44.8993 16.3894 44.7731 16.3895C44.5769 16.389 44.5769 16.389 44.3768 16.3885C43.9376 16.3875 43.4984 16.3873 43.0592 16.3871C42.7447 16.3866 42.4302 16.386 42.1156 16.3854C41.2605 16.3838 40.4053 16.3831 39.5501 16.3825C39.0158 16.3822 38.4816 16.3817 37.9473 16.3812C36.4674 16.3798 34.9876 16.3786 33.5077 16.3782C33.413 16.3781 33.3183 16.3781 33.2208 16.3781C33.1259 16.3781 33.0309 16.378 32.9332 16.378C32.7409 16.378 32.5486 16.3779 32.3563 16.3779C32.2609 16.3778 32.1655 16.3778 32.0672 16.3778C30.5221 16.3773 28.9771 16.3753 27.432 16.3725C25.8447 16.3698 24.2575 16.3683 22.6702 16.3682C21.7794 16.3681 20.8886 16.3674 19.9978 16.3653C19.2392 16.3634 18.4806 16.3629 17.7219 16.3638C17.3351 16.3643 16.9484 16.364 16.5616 16.3625C16.1415 16.361 15.7214 16.3617 15.3013 16.3629C15.1196 16.3615 15.1196 16.3615 14.9343 16.3601C13.6155 16.369 12.5322 16.6839 11.6341 17.6859Z" fill="#D9D9D9"/>
<path d="M13.7109 20.9766C14.035 21.1343 14.3044 21.2954 14.582 21.5259C14.6573 21.5878 14.7325 21.6497 14.81 21.7136C14.8896 21.7797 14.9692 21.8459 15.0513 21.9141C15.6329 22.3924 16.2171 22.8643 16.8164 23.3203C17.4745 23.822 18.1163 24.3414 18.7569 24.8653C19.3579 25.3556 19.9697 25.8287 20.5865 26.299C21.0266 26.6375 21.4554 26.9894 21.8848 27.3413C22.527 27.8674 23.1782 28.3786 23.8403 28.8794C24.5202 29.394 25.1845 29.9232 25.8398 30.4688C26.5203 31.0347 27.2095 31.5863 27.9126 32.124C27.994 32.1864 28.0754 32.2488 28.1593 32.3131C28.994 33.0376 28.994 33.0376 30 33.3398C30.1088 33.3417 30.1088 33.3417 30.2197 33.3435C30.8667 33.1818 31.4039 32.6425 31.9189 32.2339C31.9891 32.1785 32.0592 32.1232 32.1315 32.0661C32.7584 31.5699 33.3777 31.0644 33.9969 30.5587C34.5962 30.0706 35.2062 29.5993 35.8209 29.1307C36.261 28.7922 36.6897 28.4402 37.1191 28.0884C37.7614 27.5623 38.4126 27.0511 39.0747 26.5503C39.8409 25.9704 40.5849 25.3684 41.3232 24.7536C41.9726 24.2152 42.6381 23.7018 43.3116 23.1941C44.0353 22.6456 44.7344 22.0696 45.4271 21.4824C45.5059 21.4162 45.5848 21.3501 45.666 21.2819C45.7356 21.2229 45.8051 21.1638 45.8768 21.103C46.0547 20.9766 46.0547 20.9766 46.289 20.9766C46.2973 23.4763 46.3035 25.976 46.3073 28.4758C46.3091 29.6364 46.3116 30.797 46.3156 31.9577C46.3191 32.969 46.3213 33.9804 46.3221 34.9918C46.3226 35.5275 46.3237 36.0632 46.3262 36.5989C46.3286 37.1028 46.3293 37.6067 46.3288 38.1106C46.3289 38.2959 46.3296 38.4811 46.331 38.6663C46.3327 38.9187 46.3323 39.171 46.3313 39.4234C46.3316 39.5648 46.332 39.7062 46.3323 39.8519C46.289 40.1953 46.289 40.1953 46.1443 40.3898C45.8785 40.5916 45.7293 40.5909 45.3974 40.5911C45.2859 40.592 45.1744 40.593 45.0595 40.5939C44.9367 40.5931 44.814 40.5923 44.6875 40.5915C44.4922 40.5923 44.4922 40.5923 44.2929 40.5932C43.8543 40.5946 43.4157 40.5935 42.9771 40.5924C42.6636 40.5928 42.3501 40.5935 42.0366 40.5942C41.2721 40.5958 40.5076 40.5955 39.7431 40.5944C39.1219 40.5936 38.5007 40.5935 37.8795 40.5939C37.747 40.594 37.747 40.594 37.6119 40.5941C37.4325 40.5942 37.2531 40.5943 37.0737 40.5944C35.3904 40.5954 33.7071 40.5943 32.0238 40.5924C30.5786 40.5908 29.1334 40.5911 27.6882 40.5927C26.011 40.5946 24.3339 40.5953 22.6567 40.5943C22.4779 40.5941 22.2992 40.594 22.1205 40.5939C22.0325 40.5939 21.9445 40.5938 21.8539 40.5938C21.2333 40.5935 20.6127 40.594 19.992 40.5948C19.236 40.5958 18.4799 40.5955 17.7239 40.5936C17.3379 40.5927 16.952 40.5925 16.566 40.5935C16.1481 40.5945 15.7304 40.5933 15.3125 40.5915C15.1897 40.5923 15.067 40.5931 14.9405 40.5939C14.829 40.593 14.7175 40.5921 14.6026 40.5911C14.5061 40.5911 14.4096 40.591 14.3101 40.5909C14.0008 40.5359 13.8969 40.4452 13.7109 40.1953C13.6677 39.8519 13.6677 39.8519 13.6686 39.4234C13.6683 39.3446 13.668 39.2659 13.6677 39.1847C13.6672 38.9202 13.6691 38.6557 13.671 38.3912C13.6711 38.2018 13.6711 38.0124 13.6709 37.823C13.6708 37.3083 13.6728 36.7936 13.6753 36.2788C13.6775 35.7411 13.6777 35.2034 13.6781 34.6657C13.6792 33.6472 13.6821 32.6288 13.6856 31.6103C13.6895 30.4509 13.6915 29.2915 13.6932 28.1321C13.6969 25.7469 13.7031 23.3617 13.7109 20.9766Z" fill="#D9D9D9"/>
<path d="M16.7578 19.4531C25.4977 19.4531 34.2375 19.4531 43.2422 19.4531C42.2485 20.4468 41.1416 21.302 40.0356 22.1658C39.5978 22.5082 39.1639 22.8553 38.7305 23.2031C38.1692 23.6534 37.6055 24.1003 37.0386 24.5435C36.4419 25.0101 35.8527 25.4851 35.2661 25.9644C34.589 26.5174 33.9026 27.0545 33.2071 27.5844C32.6612 28.0042 32.13 28.4424 31.5987 28.8805C31.3798 29.0602 31.1587 29.2372 30.9375 29.4141C30.8657 29.4747 30.7939 29.5353 30.7199 29.5978C30.5081 29.767 30.5081 29.767 30.1172 30C29.5293 29.9313 29.0402 29.385 28.6011 29.0112C28.4224 28.8615 28.2435 28.712 28.0646 28.5626C27.9758 28.4884 27.8871 28.4141 27.7956 28.3376C27.4343 28.0382 27.0667 27.7472 26.6968 27.4585C26.6304 27.4066 26.564 27.3547 26.4956 27.3012C26.2966 27.146 26.0975 26.9909 25.8984 26.8359C24.9482 26.0947 24.0066 25.3443 23.0732 24.582C22.4739 24.094 21.864 23.6227 21.2494 23.1541C20.7294 22.7542 20.2243 22.3359 19.7172 21.9198C19.0336 21.3618 18.3339 20.8265 17.6258 20.2998C17.5464 20.2401 17.4669 20.1803 17.3849 20.1187C17.3146 20.0664 17.2443 20.0141 17.1719 19.9603C16.9922 19.8047 16.9922 19.8047 16.7578 19.4531Z" fill="#D9D9D9"/>
</g>
<defs>
<clipPath id="clip0_607_15">
<rect width="60" height="60" fill="white"/>
</clipPath>
</defs>
</svg>
