<svg width="159" height="32" viewBox="0 0 159 32" fill="none" xmlns="http://www.w3.org/2000/svg">
<path d="M13.0605 2.18433C12.658 2.18433 12.5984 2.31557 12.4153 2.64518C12.1473 3.12762 12.4496 4.1996 12.487 4.58077C12.7554 7.31608 12.9511 10.0163 12.8864 12.7635C12.8446 14.5406 12.8762 16.3215 12.8762 18.0992C12.8762 19.3161 13.0806 17.9774 13.2449 17.4847" stroke="black" stroke-width="3" stroke-linecap="round"/>
<path d="M2 3.29039C4.79473 3.63974 8.03785 3.20722 10.9508 3.02412C14.0355 2.83023 17.1218 2.68428 20.1884 2.28675C20.7101 2.21912 21.7345 2.35875 22.0933 2" stroke="black" stroke-width="3" stroke-linecap="round"/>
<path d="M3.29041 21.7247C3.49996 21.911 3.92509 22.1118 4.21211 22.0934C8.72958 21.8038 13.2438 20.8522 17.7715 20.803C18.3091 20.7972 22.3252 20.8982 22.0933 20.4343" stroke="black" stroke-width="3" stroke-linecap="round"/>
<path d="M25.9645 11.9546C27.4044 12.1146 27.9824 15.2856 28.2483 16.0408C28.7609 17.4971 29.473 18.9725 29.2826 20.4958C29.253 20.7329 29.2613 20.0158 29.2929 19.7789C29.6316 17.2385 31.1514 14.2122 33.3484 12.7841C35.352 11.4818 37.0375 10.7825 38.4588 13.204C39.2299 14.5179 39.0528 16.2109 39.0528 17.6692C39.0528 18.1091 38.8135 19.4852 39.2371 19.697" stroke="black" stroke-width="3" stroke-linecap="round"/>
<path d="M54.9062 11.0329C54.4403 11.0329 54.5375 10.8729 54.5375 11.4425C54.5375 11.7442 54.6387 11.9387 54.6809 12.2208C55.5034 17.7217 55.6916 23.3128 56.4628 28.8218C56.5155 29.1982 56.8069 30.2882 56.6369 29.9484C56.0531 28.7807 55.8476 27.2333 55.6026 25.9646C54.9681 22.679 55.0567 19.4594 55.2748 16.133C55.5118 12.5192 58.1067 6.83026 62.3822 10.1931C64.5855 11.9259 64.4729 14.2887 61.9009 15.5288C61.0507 15.9387 57.7153 17.3445 56.9339 16.5631" stroke="black" stroke-width="3" stroke-linecap="round"/>
<path d="M66.5198 10.2955C66.8206 10.2955 67.1436 10.2632 67.4415 10.3057C68.3868 10.4408 69.2538 14.7563 69.4488 15.4776C69.6037 16.051 69.4202 17.6175 69.5819 16.8089C70.1647 13.8948 73.555 9.91927 76.4742 9.18945" stroke="black" stroke-width="3" stroke-linecap="round"/>
<path d="M80.714 10.8484C80.6766 10.5491 80.258 10.6511 80.0688 10.7562C79.2567 11.2074 79.6065 11.8511 79.9357 12.7532C80.7465 14.9756 81.711 18.6019 84.6774 17.7407C86.0494 17.3424 87.1571 16.0134 87.678 14.74C88.5669 12.5673 87.0687 9.65186 84.8412 9.10737C83.5191 8.7842 78.1951 8.7909 79.2393 11.4014" stroke="black" stroke-width="3" stroke-linecap="round"/>
<path d="M95.4613 9.74243C93.8411 9.74243 92.2893 10.3598 91.1088 11.5654C89.5954 13.111 91.4635 15.4476 93.0649 15.7335C95.0962 16.0963 98.6045 14.8335 97.7656 12.1491C97.4533 11.1497 97.3048 11.2361 97.3048 12.3232C97.3048 14.5433 98.0213 16.7352 98.0421 18.9595C98.0693 21.8643 97.2988 24.0757 94.2119 24.6741C92.797 24.9484 91.1966 24.9562 89.8389 25.4217C89.4869 25.5424 88.1072 26.1684 87.9033 25.9645" stroke="black" stroke-width="3" stroke-linecap="round"/>
<path d="M101.729 11.1111C101.226 11.1111 101.203 10.8536 101.657 10.7527C101.935 10.6909 102.273 10.7425 102.559 10.7425C103.501 10.7425 104.481 16.1486 104.054 17.051C103.818 17.5481 104.107 15.4876 104.576 14.9413C105.651 13.6907 107.149 12.8315 108.509 11.9304C109.128 11.5204 109.985 11.1706 110.393 10.5581" stroke="black" stroke-width="3" stroke-linecap="round"/>
<path d="M115.555 13.5075C117.131 13.3323 119.072 12.9512 120.593 12.5039C121.506 12.2356 121.347 10.4716 120.798 9.92311C119.353 8.47813 115.643 9.21567 114.541 10.7424C112.839 13.0992 112.773 16.6934 116.476 16.8257C117.211 16.8519 123.644 16.9677 123.113 15.904" stroke="black" stroke-width="3" stroke-linecap="round"/>
<path d="M131.039 8.71471C130.798 8.68457 130.515 8.29266 130.343 8.12072C129.875 7.6525 127.804 10.0412 127.731 10.6196C127.659 11.2002 129.35 11.8208 129.749 12.0738C131.008 12.8718 133.283 15.0333 131.183 16.2727C129.949 17.001 127.372 17.4808 126.062 16.8258" stroke="black" stroke-width="3" stroke-linecap="round"/>
<path d="M140.994 9.26772C140.561 9.21361 141.048 8.24301 140.338 8.32553C139.317 8.44427 136.328 8.9593 136.59 10.4659C136.708 11.1458 137.544 11.7339 138.055 12.125C138.85 12.7345 142.199 14.77 141.362 16.0474C140.4 17.5168 136.575 16.8257 135.095 16.8257" stroke="black" stroke-width="3" stroke-linecap="round"/>
<path d="M146.789 15.5977H146.867" stroke="black" stroke-width="3" stroke-linecap="round"/>
<path d="M151.823 15.5977C151.764 15.5977 151.795 15.6204 151.823 15.6755" stroke="black" stroke-width="3" stroke-linecap="round"/>
<path d="M156.867 15.5977H156.789" stroke="black" stroke-width="3" stroke-linecap="round"/>
</svg>
