<svg width="60" height="60" viewBox="0 0 60 60" fill="none" xmlns="http://www.w3.org/2000/svg">
<g clip-path="url(#clip0_607_19)">
<path d="M29.9561 -0.0366645C30.0753 -0.0364119 30.1946 -0.0361594 30.3175 -0.0358992C32.0295 -0.0300784 33.7091 -0.000676431 35.3906 0.351519C35.5049 0.374802 35.6191 0.398084 35.7368 0.422072C42.7172 1.88224 49.3211 5.61937 53.6719 11.3671C53.7205 11.4303 53.7692 11.4934 53.8193 11.5585C56.6905 15.2932 58.6232 19.5768 59.5679 24.1919C59.5851 24.2761 59.6024 24.3603 59.6202 24.4471C59.9687 26.2807 60.0437 28.094 60.0366 29.956C60.0364 30.0753 60.0361 30.1946 60.0359 30.3175C60.03 32.0295 60.0006 33.709 59.6484 35.3906C59.6135 35.5619 59.6135 35.5619 59.5779 35.7368C58.3765 41.4799 55.7587 46.6366 51.6797 50.8593C51.6095 50.9321 51.5393 51.0048 51.467 51.0798C50.5689 52.0057 49.6617 52.8899 48.6328 53.6718C48.5695 53.7207 48.5062 53.7695 48.4409 53.8198C44.7063 56.6907 40.4229 58.6232 35.8081 59.5678C35.7239 59.5851 35.6396 59.6024 35.5528 59.6202C33.833 59.947 32.1309 60.0408 30.3835 60.0369C30.039 60.0366 29.6947 60.0393 29.3502 60.0423C27.783 60.0475 26.2718 59.9063 24.7266 59.6484C24.5267 59.6153 24.5267 59.6153 24.3228 59.5816C24.0186 59.5269 23.7173 59.4662 23.4155 59.3994C23.2528 59.3634 23.2528 59.3634 23.0867 59.3267C17.8022 58.0979 13.034 55.4336 9.14063 51.6796C9.02767 51.5715 9.02767 51.5715 8.91243 51.4611C7.83711 50.4268 6.85861 49.3674 5.97656 48.164C5.9019 48.0639 5.9019 48.0639 5.82573 47.9619C5.06219 46.9375 4.37861 45.8776 3.75 44.7656C3.70287 44.6827 3.65574 44.5998 3.60718 44.5144C2.08076 41.8033 1.05551 38.8535 0.432129 35.8081C0.41486 35.7238 0.397592 35.6396 0.3798 35.5528C0.0313015 33.7192 -0.0437117 31.9059 -0.0366215 30.0439C-0.0363689 29.9246 -0.0361164 29.8053 -0.0358561 29.6824C-0.0300354 27.9704 -0.000633392 26.2909 0.351562 24.6093C0.374845 24.4951 0.398127 24.3808 0.422115 24.2631C1.60813 18.5934 4.17647 13.4385 8.20313 9.25777C8.2772 9.1805 8.35128 9.10323 8.4276 9.02362C9.49922 7.91172 10.5888 6.88751 11.8359 5.97652C11.9708 5.87596 12.1057 5.77541 12.2406 5.67485C13.2003 4.96733 14.1967 4.33653 15.2344 3.74996C15.3173 3.70282 15.4001 3.65569 15.4855 3.60713C18.1967 2.08072 21.1464 1.05546 24.1919 0.432085C24.2761 0.414817 24.3604 0.397549 24.4472 0.379757C26.2807 0.0312584 28.094 -0.0437548 29.9561 -0.0366645ZM25.5469 12.8027C25.3484 12.8049 25.3484 12.8049 25.146 12.8072C21.5069 12.852 18.1426 13.236 15.4688 15.9375C15.3905 16.0131 15.3122 16.0888 15.2316 16.1668C13.1917 18.2852 12.8986 21.4373 12.8494 24.2239C12.8467 24.3666 12.8439 24.5094 12.841 24.6565C12.8324 25.1241 12.8247 25.5918 12.8174 26.0595C12.8161 26.1396 12.8148 26.2197 12.8135 26.3022C12.772 28.8782 12.7706 31.4522 12.8101 34.0283C12.8121 34.1778 12.8141 34.3273 12.8161 34.4813C12.8634 37.8223 12.9742 41.3347 15.3516 43.9453C15.4309 44.0339 15.5102 44.1226 15.5919 44.214C17.674 46.4218 20.627 47.0451 23.5494 47.1407C24.4443 47.1638 25.3394 47.1767 26.2346 47.1868C26.5013 47.1899 26.768 47.1934 27.0346 47.1969C29.4982 47.2287 31.9603 47.2318 34.4238 47.1899C34.5553 47.1879 34.6868 47.1859 34.8223 47.1839C38.1649 47.1299 41.476 46.8909 44.0625 44.5312C44.1338 44.4706 44.2051 44.41 44.2786 44.3476C46.238 42.5708 46.9392 39.8071 47.1094 37.2656C47.125 36.7826 47.1266 36.3001 47.1264 35.8169C47.1268 35.6782 47.1272 35.5395 47.1276 35.3966C47.1287 34.9414 47.1289 34.4862 47.1291 34.031C47.1292 33.8728 47.1294 33.7146 47.1296 33.5563C47.1307 32.7273 47.1312 31.8983 47.1311 31.0693C47.131 30.3023 47.1323 29.5353 47.1341 28.7682C47.1357 28.1051 47.1363 27.4419 47.1362 26.7787C47.1362 26.3847 47.1366 25.9907 47.1377 25.5967C47.1466 22.2243 47.0507 18.6925 44.6484 16.0546C44.5691 15.966 44.4898 15.8773 44.4081 15.7859C42.3265 13.5787 39.3743 12.955 36.4525 12.8592C35.5593 12.8361 34.666 12.8232 33.7725 12.813C33.5059 12.81 33.2394 12.8066 32.9728 12.8032C30.4971 12.7718 28.0225 12.7664 25.5469 12.8027Z" fill="#D9D9D9"/>
<path d="M26.7627 15.8046C27.0231 15.8045 27.2834 15.8044 27.5438 15.8042C28.0863 15.8041 28.6287 15.8043 29.1712 15.8048C29.861 15.8055 30.5509 15.8051 31.2407 15.8044C31.7774 15.804 32.3141 15.8041 32.8508 15.8044C33.1049 15.8045 33.359 15.8044 33.6131 15.8042C40.2602 15.7985 40.2602 15.7985 42.4219 17.9295C44.5129 20.2696 44.1984 23.8406 44.1953 26.7625C44.1953 27.0229 44.1954 27.2833 44.1956 27.5436C44.1958 28.0861 44.1955 28.6286 44.195 29.171C44.1943 29.8609 44.1947 30.5507 44.1954 31.2405C44.1958 31.7772 44.1957 32.3139 44.1954 32.8506C44.1953 33.1047 44.1954 33.3588 44.1957 33.613C44.2012 40.1137 44.2012 40.1137 42.1875 42.3045C39.7438 44.473 36.2973 44.1984 33.2373 44.1951C32.9769 44.1951 32.7166 44.1953 32.4562 44.1954C31.9137 44.1956 31.3713 44.1953 30.8288 44.1948C30.139 44.1941 29.4491 44.1945 28.7593 44.1952C28.2226 44.1956 27.6859 44.1955 27.1492 44.1952C26.8951 44.1951 26.641 44.1952 26.3869 44.1955C20.0053 44.2009 20.0053 44.2009 17.8125 42.3045C16.5513 40.9863 16.0525 39.3205 15.9175 37.5378C15.9081 37.422 15.8988 37.3061 15.8892 37.1868C15.792 35.878 15.7863 34.5708 15.7892 33.2591C15.789 32.9962 15.7888 32.7332 15.7885 32.4703C15.7882 31.9239 15.7887 31.3776 15.7898 30.8312C15.7911 30.1391 15.7903 29.447 15.7889 28.7549C15.7881 28.2134 15.7883 27.6719 15.789 27.1303C15.7891 26.8754 15.7889 26.6206 15.7884 26.3657C15.7861 25.0546 15.8142 23.7533 15.923 22.4463C15.9318 22.3373 15.9406 22.2284 15.9497 22.1162C16.0803 20.7044 16.4444 19.4028 17.3438 18.2811C17.4308 18.1602 17.5178 18.0394 17.6074 17.9149C19.9346 15.4819 23.6723 15.8012 26.7627 15.8046ZM37.7563 19.3577C37.3406 19.8923 37.1438 20.3611 37.1558 21.0423C37.3299 21.6809 37.5401 22.18 38.1152 22.5438C38.7382 22.8512 39.258 22.9228 39.9243 22.7195C40.5735 22.3521 40.9729 21.9401 41.2051 21.2314C41.305 20.6636 41.1662 20.1752 40.8751 19.685C40.4536 19.1365 40.0354 18.9339 39.375 18.7498C38.7502 18.7498 38.2459 18.977 37.7563 19.3577ZM23.6719 23.9061C23.5897 23.9854 23.5075 24.0647 23.4229 24.1464C21.7947 25.8349 21.1493 28.146 21.1858 30.4452C21.2699 32.7254 22.3359 34.7286 23.9062 36.3279C23.9856 36.4101 24.0649 36.4923 24.1466 36.577C25.8351 38.2051 28.1461 38.8505 30.4454 38.8141C32.7256 38.7299 34.7288 37.6639 36.3281 36.0936C36.4103 36.0143 36.4925 35.9349 36.5771 35.8532C38.2053 34.1647 38.8507 31.8537 38.8142 29.5544C38.7301 27.2742 37.6641 25.271 36.0938 23.6717C36.0144 23.5895 35.9351 23.5073 35.8534 23.4227C34.1649 21.7945 31.8539 21.1491 29.5546 21.1856C27.2744 21.2697 25.2712 22.3357 23.6719 23.9061Z" fill="#D9D9D9"/>
<path d="M32.8725 24.8937C33.1357 25.062 33.3844 25.2404 33.6328 25.4297C33.7537 25.5167 33.8745 25.6037 33.999 25.6934C34.9829 26.6345 35.7323 27.9516 35.7701 29.3372C35.8062 31.0103 35.6078 32.2714 34.5703 33.6328C34.4833 33.7537 34.3963 33.8745 34.3066 33.999C33.3655 34.983 32.0485 35.7323 30.6628 35.7701C28.9897 35.8063 27.7287 35.6078 26.3672 34.5703C26.2463 34.4833 26.1255 34.3963 26.001 34.3067C25.0171 33.3655 24.2677 32.0485 24.2299 30.6629C24.1893 28.7924 24.4909 27.3045 25.7849 25.8687C27.6393 24.0983 30.6166 23.6131 32.8725 24.8937Z" fill="#D9D9D9"/>
</g>
<defs>
<clipPath id="clip0_607_19">
<rect width="60" height="60" fill="white"/>
</clipPath>
</defs>
</svg>
