<svg width="60" height="60" viewBox="0 0 60 60" fill="none" xmlns="http://www.w3.org/2000/svg">
<g clip-path="url(#clip0_607_23)">
<path d="M30.0147 -0.0364117C30.1312 -0.0361592 30.2477 -0.0359066 30.3677 -0.0356464C32.0632 -0.0297476 33.725 0.00507065 35.3906 0.351772C35.505 0.375054 35.6194 0.398337 35.7373 0.422325C41.4068 1.60847 46.5616 4.17682 50.7422 8.20333C50.8581 8.31445 50.8581 8.31445 50.9763 8.42781C52.0882 9.49942 53.1124 10.589 54.0234 11.8361C54.124 11.971 54.2246 12.1059 54.3251 12.2408C55.0327 13.2007 55.6607 14.1984 56.25 15.2346C56.2927 15.3086 56.3354 15.3827 56.3794 15.4589C58.8983 19.8598 60.0558 24.8593 60.0366 29.8977C60.0363 30.0723 60.0363 30.0723 60.036 30.2505C60.0307 31.949 59.9767 33.6027 59.6484 35.2736C59.6296 35.3786 59.6107 35.4835 59.5913 35.5917C58.6668 40.7018 56.3594 45.5227 52.9688 49.4533C52.8944 49.5406 52.8201 49.628 52.7435 49.7179C51.3594 51.3005 49.8652 52.7855 48.1641 54.0236C48.0293 54.124 47.8946 54.2244 47.7599 54.3249C46.7999 55.0327 45.802 55.6608 44.7656 56.2502C44.6916 56.2929 44.6175 56.3356 44.5413 56.3796C41.491 58.1255 38.0436 59.2558 34.5703 59.7658C34.4294 59.7865 34.2885 59.8072 34.1433 59.8285C32.7703 60.0165 31.4064 60.0472 30.022 60.0442C29.9063 60.0441 29.7907 60.0439 29.6715 60.0438C22.0597 60.0216 14.7456 57.0826 9.25781 51.7971C9.18054 51.723 9.10328 51.6489 9.02367 51.5726C7.91176 50.501 6.88755 49.4115 5.97656 48.1643C5.87601 48.0294 5.77545 47.8945 5.6749 47.7596C4.9673 46.7997 4.33934 45.802 3.75 44.7658C3.70729 44.6918 3.66457 44.6178 3.62057 44.5415C1.87093 41.4846 0.760096 38.0468 0.234375 34.5705C0.203332 34.3732 0.203332 34.3732 0.171662 34.1719C-0.0225067 32.811 -0.0467266 31.4613 -0.0439452 30.0881C-0.0438814 29.9695 -0.0438177 29.8509 -0.043752 29.7287C-0.038977 27.7911 0.0692733 25.9255 0.46875 24.0236C0.493241 23.9047 0.517732 23.7857 0.542965 23.6631C1.57162 18.8218 3.7985 14.2947 7.03125 10.5471C7.10557 10.4598 7.1799 10.3725 7.25647 10.2825C8.64059 8.69988 10.1348 7.21495 11.8359 5.97677C11.9707 5.8764 12.1054 5.776 12.2401 5.67556C13.2001 4.96768 14.198 4.33966 15.2344 3.75021C15.3084 3.7075 15.3825 3.66478 15.4587 3.62078C18.5092 1.87479 21.9563 0.745117 25.4297 0.234584C25.6404 0.203414 25.6404 0.203414 25.8554 0.171613C27.2413 -0.0192304 28.6174 -0.0418641 30.0147 -0.0364117ZM14.7876 15.9597C14.1852 16.8797 14.0983 17.9138 14.306 18.9713C14.5823 19.9043 15.1171 20.6803 15.9375 21.2111C16.9308 21.7428 17.8568 21.9586 18.9697 21.6652C20.1202 21.2864 20.8614 20.6317 21.4453 19.5705C21.812 18.6643 21.8449 17.6505 21.5593 16.7155C21.0884 15.6889 20.3914 14.9526 19.3652 14.4729C17.5481 13.8408 15.9541 14.5363 14.7876 15.9597ZM32.5781 26.4846C32.0811 27.0071 32.0811 27.0071 31.875 27.6565C31.7977 27.6565 31.7203 27.6565 31.6406 27.6565C31.6406 26.6897 31.6406 25.7229 31.6406 24.7268C29.591 24.7268 27.5414 24.7268 25.4297 24.7268C25.4297 31.649 25.4297 38.5713 25.4297 45.7033C27.5566 45.7033 29.6836 45.7033 31.875 45.7033C31.8794 44.8497 31.8838 43.996 31.8883 43.1165C31.8918 42.5734 31.8955 42.0302 31.8995 41.4871C31.9058 40.6264 31.9118 39.7657 31.9156 38.9049C31.9187 38.2104 31.9234 37.516 31.9293 36.8215C31.9312 36.5575 31.9326 36.2935 31.9333 36.0295C31.9449 32.2625 31.9449 32.2625 33.0469 30.9377C33.984 30.103 34.9706 29.9474 36.1894 29.9714C36.9882 30.0331 37.6604 30.2697 38.2535 30.8201C39.0721 31.8647 39.1572 33.1254 39.1647 34.3951C39.1659 34.5175 39.167 34.6399 39.1682 34.7661C39.1719 35.1693 39.1748 35.5726 39.1777 35.9759C39.1801 36.256 39.1826 36.5361 39.1851 36.8162C39.1915 37.5525 39.1973 38.2889 39.203 39.0252C39.2099 39.9092 39.2177 40.7931 39.2253 41.6771C39.2368 43.0192 39.2472 44.3613 39.2578 45.7033C41.3848 45.7033 43.5117 45.7033 45.7031 45.7033C45.7137 43.2062 45.7137 43.2062 45.7208 40.7091C45.7227 39.8151 45.7252 38.9211 45.7297 38.0272C45.7336 37.2422 45.7356 36.4573 45.7365 35.6724C45.7371 35.3747 45.7384 35.0771 45.7403 34.7794C45.7592 31.7144 45.6873 28.3876 43.4789 26.0012C41.7295 24.377 39.393 24.1598 37.1143 24.237C35.3152 24.3561 33.812 25.2077 32.5781 26.4846ZM14.7656 24.7268C14.7656 31.649 14.7656 38.5713 14.7656 45.7033C16.8926 45.7033 19.0195 45.7033 21.2109 45.7033C21.2109 38.7811 21.2109 31.8588 21.2109 24.7268C19.084 24.7268 16.957 24.7268 14.7656 24.7268Z" fill="#D9D9D9"/>
</g>
<defs>
<clipPath id="clip0_607_23">
<rect width="60" height="60" fill="white"/>
</clipPath>
</defs>
</svg>
