<svg width="29" height="45" viewBox="0 0 29 45" fill="none" xmlns="http://www.w3.org/2000/svg">
<path d="M3.85955 22.0675C3.80876 24.7354 4.47164 27.2928 4.82767 29.9127C4.8893 30.3662 4.84075 31.0227 5.08476 31.4338C5.22648 31.6726 5.13565 30.8805 5.14434 30.6029C5.19859 28.8708 5.14935 27.1353 5.09604 25.4041C4.9119 19.4237 4.31367 13.4024 4.62736 7.41691C4.65365 6.91531 4.63645 5.43265 4.77013 5.91682C5.56826 8.80752 5.34719 12.4516 5.45914 15.4154C5.62941 19.9227 5.94418 24.2941 6.62042 28.7557C6.82405 30.0993 6.7577 31.8348 7.55238 33.0065C7.71752 33.25 7.8554 33.9572 7.88749 33.3448C8.07927 29.6854 8.30838 26.0331 8.60645 22.3804C8.85919 19.2832 9.40087 9.97619 9.23824 13.0794C8.9538 18.5067 8.66937 23.9341 8.38494 29.3614C8.38083 29.4397 8.24933 32.4457 8.53871 31.9356C9.55696 30.1406 9.60922 27.342 9.87737 25.366C10.2796 22.4018 10.6967 19.4309 11.0657 16.463C11.4118 13.678 11.9318 20.7469 11.9742 21.1616C12.027 21.6792 12.9413 30.0324 13.562 29.729C14.2937 29.3712 14.4666 27.1714 14.5925 26.5914C15.0117 24.6597 15.3619 22.7109 15.6998 20.7635C16.1062 18.4212 15.8 20.1432 15.5443 21.5893C14.9097 25.1775 13.6072 28.8674 13.4161 32.5119C13.2863 34.9902 13.7442 27.5431 14.2529 25.1141C14.3162 24.8119 14.5668 21.5723 14.4915 23.0096C14.3457 25.7926 14.1998 28.5756 14.054 31.3585C14.0022 32.3453 14.3866 30.252 14.4299 29.999C14.605 28.9759 15.2853 30.279 14.7425 31.0739C13.6767 32.6345 11.3547 34.1137 9.66401 34.9455C7.91656 35.8053 13.455 36.4272 13.9154 36.4514C15.2292 36.5202 16.4375 36.4755 17.673 36.0549C18.8837 35.6427 15.189 35.3634 13.9117 35.2964C12.4862 35.2217 14.5409 35.3294 14.9354 35.3501C17.4575 35.4823 13.1489 35.8052 12.5305 35.9458C12.3269 35.992 7.95158 36.8836 8.90529 37.4879C9.99594 38.1789 11.4844 37.8405 12.6666 38.2463C12.8882 38.3224 9.19245 39.389 8.6229 39.5099C7.86854 39.6701 4.49823 40.3619 7.18524 40.0119C9.60723 39.6965 16.9233 39.4959 14.4842 39.368C12.8262 39.2811 11.2344 39.3951 9.59093 39.4003C9.3766 39.4009 10.2872 39.026 10.367 38.9758C11.5755 38.2167 12.543 37.5198 13.4987 36.4456C14.9432 34.822 15.43 33.7464 15.9009 31.6157C16.366 29.5114 16.226 27.3013 16.3995 25.1625C16.4391 24.6738 17.4665 28.1164 17.5956 28.6573C17.9406 30.1029 18.8005 32.2957 19.6069 29.7571C19.6755 29.5411 20.7284 24.7873 21.0834 26.3702C21.3782 27.6842 21.6113 30.3753 21.6113 30.3753C21.6113 30.3753 21.7052 28.584 21.6817 29.0318C21.5588 31.3776 21.4358 33.7234 21.3129 36.0692C21.2879 36.5453 21.2724 38.4635 21.558 36.9C21.9737 34.6245 22.0864 32.3258 22.2072 30.0217C22.283 28.5748 21.9501 27.2935 21.6221 25.8853C21.2935 24.4749 20.5783 22.544 20.6546 21.0873C20.7051 20.124 20.291 18.5049 19.3711 18.037C18.4833 17.5853 17.5228 18.2367 16.8341 18.7059C16.4079 18.9962 15.4332 19.7231 14.8898 19.6946C14.0378 19.6499 16.0633 18.417 16.807 17.9988C18.0918 17.2764 20.2108 17.1894 21.295 16.2132C21.5577 15.9767 20.562 16.0144 20.5037 16.0114C19.4041 15.9537 18.2738 15.8157 17.1735 15.901C11.9024 16.3095 19.0078 16.3877 18.8647 15.7651C18.597 14.6009 14.6262 14.8373 13.8314 14.7956C13.2582 14.7656 12.6755 14.7612 12.104 14.7051C12.0895 14.7037 13.747 14.4594 14.1411 14.3949C14.5629 14.3258 17.9229 14.0538 16.4339 13.4886C14.8102 12.8723 11.9778 13.7132 10.6035 12.734C9.62753 12.0385 13.4589 11.8156 13.7651 11.777C13.9384 11.7552 17.5567 11.6101 16.0714 11.2243C14.5221 10.8219 12.6819 10.9825 11.0846 10.8988C9.87177 10.8352 13.7865 11.1786 14.689 10.366C15.5348 9.60446 11.1589 8.88188 10.7904 8.86257C10.4776 8.84617 7.1109 8.79421 8.73889 8.53052C9.32585 8.43545 11.9797 8.77974 12.3484 8.20647C12.7076 7.64794 10.0744 6.82069 9.63247 6.78109C8.48717 6.67845 10.4214 6.82244 10.7201 6.83809C10.9643 6.85089 11.3542 6.84156 10.7352 6.85492C9.47546 6.88211 8.22728 7.05943 6.97926 7.21941C5.19223 7.44849 6.61223 7.97896 7.63858 8.10398C9.48135 8.32845 11.3814 8.31617 13.2357 8.41335C15.056 8.50875 16.9718 8.44327 18.7663 8.76735C19.8033 8.95463 20.9464 9.39482 21.9703 9.44848C24.0218 9.55599 23.5504 9.91975 23.9641 11.7983C24.7824 15.5133 24.205 19.4429 24.0054 23.2516C23.8367 26.4719 23.8584 29.8205 23.787 32.9271C23.7394 35.0027 25.224 39.3435 22.8307 40.1583C20.0866 41.0925 16.7629 39.3509 13.9887 40.561C11.9879 41.4336 9.10251 41.1068 6.90936 40.9918C5.79477 40.9334 5.33612 40.7371 4.50752 39.9999C3.19482 38.832 3.22302 37.6084 3.15887 35.7433C3.08362 33.5552 3.37619 31.2906 3.49074 29.1049C3.61473 26.7391 3.45022 24.3697 3.5725 22.0364C3.78345 18.0112 3.9944 13.9861 4.20535 9.96088C4.23946 9.30997 4.19706 8.48005 5.02993 8.30407C6.2081 8.05511 7.13885 7.43716 8.32612 7.22584C10.3853 6.85934 12.3087 5.48193 14.3924 5.31448C15.3801 5.23511 16.4975 4.77925 17.4521 4.46444C18.3801 4.15844 19.5335 4.41313 20.4994 4.46376C21.3018 4.50581 25.0909 4.23828 25.546 4.87258C26.0387 5.55927 25.9646 7.90265 25.9181 8.78932C25.8442 10.1996 19.3365 8.84954 18.4253 8.54098C16.8445 8.00565 15.3778 7.65956 13.7128 7.5723C12.4238 7.50474 11.307 7.98957 10.0839 7.95949C8.73375 7.92628 7.10877 8.01116 5.78236 7.71801C4.63079 7.46351 3.75044 6.43758 3.87097 5.3244C3.97439 4.36925 8.92098 3.85696 9.86332 3.90634C11.2625 3.97967 12.6467 3.76353 13.9889 3.83387C15.082 3.89116 17.7615 4.38305 18.1286 3.18477" stroke="black" stroke-width="6"/>
<path d="M18.7523 13.3213C18.7967 14.766 19.1858 16.0663 19.1084 17.542C19.0843 18.0016 19.0769 20.1787 19.3292 18.5319C19.6517 16.4272 19.5722 14.2016 19.6838 12.0711C19.7533 10.7451 19.642 12.8691 19.6252 13.1907C19.5793 14.0655 19.1678 15.5999 19.5207 16.4088C20.3493 18.3087 20.1783 8.14494 20.0698 10.2149" stroke="black" stroke-width="6"/>
</svg>
