<svg width="118" height="30" viewBox="0 0 118 30" fill="none" xmlns="http://www.w3.org/2000/svg">
<path d="M4.84117 2C4.8013 2.319 4.55351 2.11293 4.43118 2.33312C3.98208 3.14149 4.04482 4.61442 3.94432 5.43367C3.32696 10.4661 2.86087 15.5057 2.17623 20.5265C1.89313 22.6026 1.60195 24.3607 4.30306 23.5758C6.94829 22.8071 9.51496 21.9132 12.221 21.3721" stroke="black" stroke-width="3" stroke-linecap="round"/>
<path d="M21.907 14.9148C21.575 14.8779 21.3457 14.6154 21.0358 14.5048C19.8003 14.0635 18.0573 15.13 17.1921 15.9269C14.2526 18.6343 18.0706 21.5713 20.7539 21.7949C23.8139 22.0499 29.1839 20.358 27.3394 16.3497C25.5956 12.5603 21.1243 13.9207 19.3702 16.9903" stroke="black" stroke-width="3" stroke-linecap="round"/>
<path d="M37.8199 14.6841C35.6489 14.6841 32.5859 15.3821 31.5931 17.7334C29.8485 21.8654 37.0726 21.5067 39.178 19.9755C40.1726 19.2522 40.5617 17.9899 40.5873 16.8109C40.5925 16.5707 40.4852 14.9303 40.6001 15.85C41.0355 19.3332 44.3243 20.219 47.2753 20.219" stroke="black" stroke-width="3" stroke-linecap="round"/>
<path d="M54.6551 13.7615C54.159 13.6995 54.212 13.1397 53.5532 13.3515C51.5365 13.9997 49.6528 16.666 51.4264 18.3739C52.9522 19.8432 55.8019 19.7225 57.3712 18.3739C59.573 16.4817 59.3975 13.1209 59.0368 10.5328C58.8075 8.88693 58.815 6.01213 57.8837 4.58792C57.5723 4.11159 57.5013 5.0158 57.4737 5.22853C57.304 6.53781 57.8531 8.00092 58.0631 9.27719C58.3843 11.2288 58.8933 22.4815 62.9574 20.4494" stroke="black" stroke-width="3" stroke-linecap="round"/>
<path d="M68.2617 12.8391C67.961 13.1773 68.0077 13.5972 68.0438 14.0307C68.2095 16.0185 68.2617 17.9926 68.2617 19.9883" stroke="black" stroke-width="3" stroke-linecap="round"/>
<path d="M69.4147 5.22876C69.5858 5.22876 69.2668 5.44186 69.1841 5.69" stroke="black" stroke-width="3" stroke-linecap="round"/>
<path d="M74.9496 12.1473C74.8233 13.5359 74.3247 14.7917 74.2962 16.2472C74.2865 16.7416 74.1815 17.9589 74.4371 18.5022C74.4377 18.5034 74.4877 18.0663 74.4884 18.0409C74.5613 15.3411 75.8257 13.307 77.9476 11.6861C80.4894 9.74448 81.3671 11.4114 82.1501 13.9923C82.4634 15.0251 82.6008 18.3266 83.7131 18.6047" stroke="black" stroke-width="3" stroke-linecap="round"/>
<path d="M91.7848 10.3024C89.8602 8.37764 86.2533 11.9606 87.3134 14.3254C88.1211 16.1273 91.0273 16.3427 92.6561 15.786C94.4331 15.1787 94.8303 13.3452 94.7829 11.6861C94.7707 11.2581 94.091 13.8366 94.091 14.4535C94.091 16.9493 95.6797 19.0458 95.6797 21.5131C95.6797 27.4346 88.4619 27.5989 83.9438 27.5989" stroke="black" stroke-width="3" stroke-linecap="round"/>
<path d="M101.01 16.9902C100.978 17.2762 100.848 17.2899 101.01 17.4515" stroke="black" stroke-width="3" stroke-linecap="round"/>
<path d="M108.851 16.7598H108.62" stroke="black" stroke-width="3" stroke-linecap="round"/>
<path d="M115.769 15.8372L116 16.0678" stroke="black" stroke-width="3" stroke-linecap="round"/>
</svg>
