<svg width="250" height="66" viewBox="0 0 250 66" fill="none" xmlns="http://www.w3.org/2000/svg">
<path d="M3.37529 11.2012C3.64708 -4.3697 2.28813 73.4848 2.55992 57.9139" stroke="black" stroke-width="3" stroke-linecap="round"/>
<path d="M38.3965 9.6293C38.6797 -6.5961 37.2636 74.5309 37.5468 58.3055" stroke="black" stroke-width="3" stroke-linecap="round"/>
<path d="M3.40599 9.4433C3.4403 9.20295 12.7716 10.012 13.9499 9.8646C16.9688 9.48697 19.9164 9.48026 22.9996 9.53408C25.6193 9.57981 28.0305 9.11945 30.6682 9.16549C33.0539 9.20714 35.6155 9.00063 38.0813 9.04367" stroke="black" stroke-width="3" stroke-linecap="round"/>
<path d="M2.39419 61.0643C3.8899 61.0904 5.42874 60.8639 6.98662 60.8911C8.4195 60.9161 9.83699 60.8141 11.2954 60.8396C12.8626 60.8669 14.4084 60.7672 15.9841 60.7947C16.6582 60.8065 17.8477 60.8661 18.4925 60.6484C19.315 60.3708 20.2958 60.8332 21.1259 60.6029C21.9129 60.3846 22.8132 60.5465 23.621 60.4142C24.3296 60.2981 25.0106 60.2205 25.7504 60.205C27.5318 60.1676 29.36 60.1413 31.171 60.1729C33.3701 60.2113 39.9632 59.9462 37.7641 59.9079" stroke="black" stroke-width="3" stroke-linecap="round"/>
<path d="M38.3877 10.7953C38.6584 -4.71418 37.3048 72.8334 37.5755 57.3238" stroke="black" stroke-width="3" stroke-linecap="round"/>
<path d="M73.4087 9.23188C73.6908 -6.92955 72.2803 73.8776 72.5624 57.7162" stroke="black" stroke-width="3" stroke-linecap="round"/>
<path d="M38.4183 9.04407C38.4526 8.80468 47.7839 9.61118 48.9622 9.46444C51.9811 9.08851 54.9287 9.08203 58.0119 9.13585C60.6316 9.18157 63.0427 8.7232 65.6805 8.76924C68.0661 8.81088 70.6278 8.60537 73.0936 8.64841" stroke="black" stroke-width="3" stroke-linecap="round"/>
<path d="M37.4101 60.4616C38.9058 60.4877 40.4446 60.2622 42.0025 60.2894C43.4354 60.3144 44.8528 60.2129 46.3112 60.2384C47.8785 60.2657 49.4242 60.1665 50.9999 60.194C51.6741 60.2058 52.8635 60.2653 53.5084 60.0485C54.3308 59.772 55.3116 60.2326 56.1417 60.0033C56.9287 59.7859 57.829 59.9473 58.6368 59.8155C59.3454 59.6999 60.0264 59.6227 60.7662 59.6073C62.5476 59.5701 64.3758 59.5441 66.1867 59.5757C68.3859 59.6141 74.979 59.3505 72.7798 59.3122" stroke="black" stroke-width="3" stroke-linecap="round"/>
<path d="M73.3998 10.4062C73.6705 -5.10334 72.3169 72.4442 72.5877 56.9347" stroke="black" stroke-width="3" stroke-linecap="round"/>
<path d="M108.421 8.84272C108.703 -7.31871 107.292 73.4884 107.575 57.327" stroke="black" stroke-width="3" stroke-linecap="round"/>
<path d="M73.4304 8.65491C73.4647 8.41552 82.796 9.22202 83.9743 9.07528C86.9932 8.69935 89.9408 8.69287 93.024 8.74669C95.6437 8.79241 98.0548 8.33404 100.693 8.38008C103.078 8.42172 105.64 8.21621 108.106 8.25925" stroke="black" stroke-width="3" stroke-linecap="round"/>
<path d="M72.4222 60.0724C73.9179 60.0986 75.4567 59.873 77.0146 59.9002C78.4475 59.9252 79.8649 59.8238 81.3233 59.8492C82.8906 59.8766 84.4363 59.7773 86.0121 59.8048C86.6862 59.8166 87.8756 59.8761 88.5205 59.6593C89.3429 59.3828 90.3237 59.8434 91.1538 59.6141C91.9409 59.3968 92.8411 59.5581 93.6489 59.4263C94.3575 59.3107 95.0385 59.2335 95.7783 59.2181C97.5597 59.181 99.3879 59.1549 101.199 59.1865C103.398 59.2249 109.991 58.9614 107.792 58.923" stroke="black" stroke-width="3" stroke-linecap="round"/>
<path d="M108.412 10.0172C108.683 -5.49226 107.329 72.0553 107.6 56.5458" stroke="black" stroke-width="3" stroke-linecap="round"/>
<path d="M143.433 8.4538C143.715 -7.70763 142.305 73.0995 142.587 56.9381" stroke="black" stroke-width="3" stroke-linecap="round"/>
<path d="M108.443 8.266C108.477 8.0266 117.808 8.8331 118.986 8.68637C122.005 8.31043 124.953 8.30395 128.036 8.35777C130.656 8.4035 133.067 7.94512 135.705 7.99116C138.09 8.03281 140.652 7.82729 143.118 7.87034" stroke="black" stroke-width="3" stroke-linecap="round"/>
<path d="M107.434 59.6835C108.93 59.7096 110.469 59.4841 112.027 59.5113C113.46 59.5363 114.877 59.4348 116.335 59.4603C117.903 59.4876 119.448 59.3884 121.024 59.4159C121.698 59.4277 122.888 59.4872 123.533 59.2704C124.355 58.9939 125.336 59.4545 126.166 59.2252C126.953 59.0078 127.853 59.1692 128.661 59.0374C129.37 58.9218 130.051 58.8446 130.79 58.8292C132.572 58.7921 134.4 58.766 136.211 58.7976C138.41 58.836 145.003 58.5725 142.804 58.5341" stroke="black" stroke-width="3" stroke-linecap="round"/>
<path d="M143.424 9.62833C143.695 -5.88118 142.341 71.6664 142.612 56.1569" stroke="black" stroke-width="3" stroke-linecap="round"/>
<path d="M178.445 8.06489C178.727 -8.09654 177.317 72.7106 177.599 56.5492" stroke="black" stroke-width="3" stroke-linecap="round"/>
<path d="M143.455 7.87708C143.489 7.63769 152.82 8.44418 153.999 8.29745C157.017 7.92152 159.965 7.91504 163.048 7.96885C165.668 8.01458 168.079 7.55621 170.717 7.60225C173.102 7.64389 175.664 7.43838 178.13 7.48142" stroke="black" stroke-width="3" stroke-linecap="round"/>
<path d="M142.446 59.2946C143.942 59.3207 145.481 59.0952 147.039 59.1224C148.472 59.1474 149.889 59.0459 151.348 59.0714C152.915 59.0987 154.461 58.9995 156.036 59.027C156.71 59.0388 157.9 59.0983 158.545 58.8815C159.367 58.605 160.348 59.0656 161.178 58.8363C161.965 58.6189 162.865 58.7803 163.673 58.6485C164.382 58.5329 165.063 58.4557 165.803 58.4403C167.584 58.4031 169.412 58.3771 171.223 58.4087C173.422 58.4471 180.015 58.1835 177.816 58.1452" stroke="black" stroke-width="3" stroke-linecap="round"/>
<path d="M178.436 9.23917C178.707 -6.27034 177.353 71.2772 177.624 55.7677" stroke="black" stroke-width="3" stroke-linecap="round"/>
<path d="M213.457 7.67573C213.739 -8.4857 212.329 72.3214 212.611 56.16" stroke="black" stroke-width="3" stroke-linecap="round"/>
<path d="M178.467 7.48792C178.501 7.24853 187.832 8.05502 189.011 7.90829C192.03 7.53236 194.977 7.52588 198.06 7.57969C200.68 7.62542 203.091 7.16705 205.729 7.21309C208.115 7.25473 210.676 7.04922 213.142 7.09226" stroke="black" stroke-width="3" stroke-linecap="round"/>
<path d="M177.459 58.9055C178.954 58.9316 180.493 58.706 182.051 58.7332C183.484 58.7582 184.901 58.6568 186.36 58.6822C187.927 58.7096 189.473 58.6103 191.048 58.6379C191.723 58.6496 192.912 58.7091 193.557 58.4923C194.379 58.2158 195.36 58.6765 196.19 58.4472C196.977 58.2298 197.878 58.3911 198.685 58.2593C199.394 58.1437 200.075 58.0665 200.815 58.0511C202.596 58.014 204.424 57.9879 206.235 58.0195C208.434 58.0579 215.027 57.7944 212.828 57.756" stroke="black" stroke-width="3" stroke-linecap="round"/>
<path d="M213.448 8.85026C213.719 -6.65925 212.365 70.8883 212.636 55.3788" stroke="black" stroke-width="3" stroke-linecap="round"/>
<path d="M248.469 7.28681C248.751 -8.87462 247.341 71.9325 247.623 55.7711" stroke="black" stroke-width="3" stroke-linecap="round"/>
<path d="M213.479 7.09901C213.513 6.85961 222.844 7.66611 224.023 7.51937C227.042 7.14344 229.989 7.13696 233.072 7.19078C235.692 7.2365 238.103 6.77813 240.741 6.82417C243.127 6.86581 245.688 6.6603 248.154 6.70334" stroke="black" stroke-width="3" stroke-linecap="round"/>
<path d="M212.471 58.5165C213.966 58.5426 215.505 58.3171 217.063 58.3443C218.496 58.3693 219.913 58.2678 221.372 58.2933C222.939 58.3207 224.485 58.2214 226.061 58.2489C226.735 58.2607 227.924 58.3202 228.569 58.1034C229.391 57.8269 230.372 58.2875 231.202 58.0582C231.989 57.8408 232.89 58.0022 233.697 57.8704C234.406 57.7548 235.087 57.6776 235.827 57.6622C237.608 57.6251 239.436 57.599 241.247 57.6306C243.446 57.669 250.04 57.4055 247.84 57.3671" stroke="black" stroke-width="3" stroke-linecap="round"/>
</svg>
