<svg width="300" height="38" viewBox="0 0 300 38" fill="none" xmlns="http://www.w3.org/2000/svg">
<path d="M22.3069 9.72709C21.4177 8.72677 21.3019 7.34593 20.4297 6.22451C19.3971 4.89697 18.0894 4.59097 16.7211 3.86657C15.5512 3.24722 11.0277 1.98648 9.94483 3.34002C9.25238 4.20557 7.62463 5.0081 6.73985 5.92691C5.08191 7.64862 5.00001 9.25592 5.00001 11.4669C5.00001 15.245 6.2958 17.2624 9.7388 18.7926C13.1188 20.2948 28.3379 26.4072 20.7502 31.5668C17.821 33.5586 14.6385 34.0392 11.181 34.0392C9.4324 34.0392 7.79854 33.8382 6.14464 33.3066C5.05038 32.9549 1.29791 33.2052 2.11552 31.9788" stroke="black" stroke-width="3" stroke-linecap="round"/>
<path d="M40.0259 19.6167C39.8262 17.8198 35.6976 19.7488 34.8979 20.2577C32.4713 21.8019 30.539 24.3608 30.0446 27.2171C29.5618 30.0068 29.9506 31.8232 32.4255 33.3982C34.6777 34.8314 38.7391 33.8223 40.1174 31.5668C41.566 29.1963 42.0862 27.2391 42.0862 24.3784C42.0862 23.5619 42.0862 22.7454 42.0862 21.9289C42.0862 21.3167 41.5171 23.178 41.7657 23.7374C42.9125 26.3177 43.2862 29.0272 45.1767 31.3378C46.0291 32.3796 47.0156 32.997 48.0612 33.8102C48.4216 34.0906 50.2741 34.4512 49.9155 34.4512" stroke="black" stroke-width="3" stroke-linecap="round"/>
<path d="M56.0965 19.6168C56.0965 23.9101 57.7448 36.6842 57.7448 32.3909" stroke="black" stroke-width="3" stroke-linecap="round"/>
<path d="M56.0966 4.78225C56.0244 5.3593 55.1219 6.0066 55.2953 6.61366C55.6509 7.85812 56.4884 5.44347 56.005 5.92689C55.4351 6.49685 55.5213 8.18264 56.6918 7.4378C57.9939 6.60923 56.4011 5.80349 56.9207 6.84259" stroke="black" stroke-width="3" stroke-linecap="round"/>
<path d="M69.2828 34.8633C69.2828 39.1302 70.1069 26.3561 70.1069 22.0892C70.1069 19.8304 70.1069 17.5717 70.1069 15.3129C70.1069 13.9313 69.7586 10.4715 70.6106 9.40659C71.5681 8.20963 71.4972 6.22486 72.7854 5.19432C74.2436 4.0277 74.6814 3.13398 76.7 3.13398C81.4303 3.13398 79.936 10.0181 81.6449 13.4357" stroke="black" stroke-width="3" stroke-linecap="round"/>
<path d="M65.5742 21.265C66.3084 21.9176 76.2701 20.8888 76.7 20.0288" stroke="black" stroke-width="3" stroke-linecap="round"/>
<path d="M110.902 35.6874C110.902 37.8403 112.395 31.6475 113.054 29.598C113.594 27.9163 113.796 26.2183 114.107 24.47C114.329 23.2224 115.022 21.4694 115.022 20.2348C115.022 17.0527 115.803 10.5027 117.815 7.98724C118.909 6.61952 119.1 3.9579 119.876 2.30983C120.224 1.56922 121.992 6.20131 122.234 6.63656C124.497 10.7109 124.284 16.3904 127.476 19.9372C127.526 19.9929 132.313 9.60132 133.337 8.28484C133.956 7.48842 134.904 4.7337 135.191 3.72919C135.471 2.7484 135.941 2.7403 136.45 2.1038C137.058 1.3436 136.456 5.00176 136.45 5.19432C136.336 9.17609 138.007 12.8871 138.098 16.8238C138.164 19.6533 138.345 22.0656 138.945 24.7676C139.639 27.8899 144.061 36.4879 142.631 33.6271" stroke="black" stroke-width="3" stroke-linecap="round"/>
<path d="M153.757 17.1443C149.111 17.7251 151.284 25.4472 151.284 28.2702C151.284 29.2544 151.83 33.1016 152.75 33.6271C155.431 35.1591 158.435 34.3992 161.174 33.4211C165.991 31.7006 168.608 23.7537 164.677 19.8228C163.667 18.813 161.427 15.9957 159.938 15.9081C158.171 15.8042 154.394 16.0559 153.757 17.9685" stroke="black" stroke-width="3" stroke-linecap="round"/>
<path d="M175.597 2.72192C175.597 4.11491 174.36 10.0149 174.36 13.0237C174.36 16.9459 174.36 20.8682 174.36 24.7905C174.36 27.4193 173.837 30.2032 173.147 32.6198C172.981 33.2001 173.124 34.0086 173.124 34.6115C173.124 35.184 173.464 33.5095 173.742 33.009C174.465 31.7083 174.887 29.1855 175.162 27.675C175.716 24.6245 176.857 22.47 179.214 20.3493C181.801 18.0207 183.514 19.2673 186.31 19.6168C188.791 19.9268 189.607 24.7161 189.607 26.6219C189.607 28.0723 190.121 34.9141 190.019 34.8633" stroke="black" stroke-width="3" stroke-linecap="round"/>
<path d="M205.266 19.2047C200.255 18.5784 195.788 22.1632 195.788 27.6521C195.788 32.6996 201.069 33.9895 204.854 31.8873C207.501 30.4166 207.2 28.1158 207.761 25.5918C208.017 24.4399 208.15 23.5263 208.15 22.2952C208.15 20.9121 207.798 20.1953 208.173 21.8831C208.74 24.4365 209.203 27.4713 211.035 29.5064C211.938 30.51 215.226 34.1816 215.155 34.0392" stroke="black" stroke-width="3" stroke-linecap="round"/>
<path d="M222.985 18.3806C222.985 22.9453 223.167 27.3324 222.985 31.8872C222.956 32.5981 222.16 33.856 222.16 33.856C222.16 33.856 222.985 31.956 222.985 30.9487C222.985 28.8077 223.381 27.062 224.427 25.1797C226.076 22.2105 229.025 18.3806 232.874 18.3806C237.025 18.3806 237.082 24.3476 236.56 27.2171C236.3 28.6493 236.171 33.0224 236.171 31.5668C236.171 29.6892 236.583 27.7588 236.583 25.7978C236.583 22.7882 238.635 17.1443 242.352 17.1443C247.634 17.1443 248.872 19.2752 249.792 24.3327C250.037 25.6785 249.86 29.2077 250.685 30.239C251.531 31.2969 251.994 33.8193 250.181 33.215" stroke="black" stroke-width="3" stroke-linecap="round"/>
<path d="M263.779 24.9737C261.837 24.9737 269.321 26.0787 269.548 24.1495C269.773 22.2354 270.664 20.091 269.045 18.4721C265.799 15.2265 262.393 15.0489 259.247 18.3806C256.228 21.5767 256.035 28.5925 260.483 31.0631C263.091 32.5122 265.611 32.3909 268.633 32.3909C269.973 32.3909 271.309 32.1935 272.616 31.9559C274.329 31.6444 274.5 31.9933 274.081 31.1547" stroke="black" stroke-width="3" stroke-linecap="round"/>
<path d="M286.443 16.7323C283.028 13.6966 279.276 19.465 278.11 22.0892C276.542 25.6188 277.698 28.6702 279.942 31.4752C282.127 34.2064 285.693 32.434 287.679 30.3306C290.317 27.5383 290.1 23.4977 291.594 20.212C293.398 16.2436 293.036 10.7524 293.036 6.43055C293.036 5.69583 293.215 2.18924 292.716 2.81349C291.638 4.16055 292.212 8.3048 292.212 9.93313C292.212 15.7821 291.307 21.0961 292.189 26.828C292.44 28.4565 293.099 30.8965 294.685 31.8873C295.217 32.2203 297.986 34.0496 297.569 33.215" stroke="black" stroke-width="3" stroke-linecap="round"/>
</svg>
