<svg width="341" height="160" viewBox="0 0 341 160" fill="none" xmlns="http://www.w3.org/2000/svg">
<path d="M141.199 46.6662C139.252 46.9096 139.04 51.2092 138.739 52.8156C136.609 64.1763 130.694 73.4318 124.527 82.4009C118.599 91.0232 110.318 97.2251 103.073 104.47C92.3589 115.184 75.7529 128.791 61.5304 133.714C52.6362 136.793 42.4218 142.071 32.97 142.596C22.1742 143.196 12.4098 144.12 2.22321 147.516" stroke="black" stroke-width="3" stroke-linecap="round"/>
<path d="M2.57544 146.81C4.41873 146.58 5.70738 141.981 6.93147 141.002C8.84069 139.475 10.0752 137.077 11.9098 135.609C14.188 133.786 16.2158 130.911 18.2479 128.879C19.9076 127.219 24.9782 122.333 23.3184 123.993" stroke="black" stroke-width="3" stroke-linecap="round"/>
<path d="M2.99036 147.225C4.60747 147.225 8.99728 148.615 10.043 149.922C11.3513 151.557 15.0661 151.8 16.8881 153.218C18.8684 154.758 21.8405 154.816 23.8255 156.26C24.4644 156.724 26.7228 157.504 27.467 157.597C27.9887 157.662 30.9473 158.426 29.5413 158.426" stroke="black" stroke-width="3" stroke-linecap="round"/>
<path d="M111.738 8.3689C111.005 7.54441 110.909 6.40628 110.19 5.48197C109.339 4.38777 108.261 4.13555 107.134 3.53848C106.169 3.028 102.441 1.98886 101.548 3.10449C100.978 3.8179 99.636 4.47937 98.9067 5.23668C97.5402 6.65576 97.4727 7.98055 97.4727 9.80295C97.4727 12.9169 98.5407 14.5797 101.379 15.841C104.164 17.0791 116.709 22.1172 110.454 26.3698C108.04 28.0116 105.417 28.4077 102.567 28.4077C101.126 28.4077 99.7793 28.242 98.4161 27.8039C97.5142 27.514 94.4213 27.7203 95.0952 26.7095" stroke="black" stroke-width="3" stroke-linecap="round"/>
<path d="M126.342 16.5203C126.178 15.0392 122.775 16.6291 122.115 17.0486C120.115 18.3214 118.523 20.4305 118.115 22.7847C117.717 25.0841 118.038 26.5812 120.078 27.8793C121.934 29.0606 125.281 28.2289 126.418 26.3698C127.612 24.416 128.04 22.8028 128.04 20.445C128.04 19.772 128.04 19.099 128.04 18.426C128.04 17.9214 127.571 19.4555 127.776 19.9167C128.721 22.0433 129.029 24.2766 130.588 26.1811C131.29 27.0398 132.103 27.5487 132.965 28.219C133.262 28.45 134.789 28.7473 134.493 28.7473" stroke="black" stroke-width="3" stroke-linecap="round"/>
<path d="M139.588 16.5203C139.588 20.059 140.947 30.5878 140.947 27.0491" stroke="black" stroke-width="3" stroke-linecap="round"/>
<path d="M139.588 4.29321C139.529 4.76884 138.785 5.30236 138.928 5.80272C139.221 6.82845 139.911 4.83821 139.513 5.23666C139.043 5.70644 139.114 7.09592 140.079 6.482C141.152 5.79907 139.839 5.13496 140.267 5.99141" stroke="black" stroke-width="3" stroke-linecap="round"/>
<path d="M150.457 29.0869C150.457 32.6039 151.136 22.075 151.136 18.5581C151.136 16.6964 151.136 14.8346 151.136 12.9729C151.136 11.8342 150.849 8.98248 151.551 8.10473C152.34 7.11817 152.282 5.48226 153.343 4.63286C154.545 3.67129 154.906 2.93466 156.57 2.93466C160.469 2.93466 159.237 8.6088 160.646 11.4257" stroke="black" stroke-width="3" stroke-linecap="round"/>
<path d="M147.4 17.8788C148.005 18.4167 156.216 17.5687 156.57 16.8599" stroke="black" stroke-width="3" stroke-linecap="round"/>
<path d="M184.76 29.7662C184.76 31.5406 185.991 26.4364 186.534 24.7471C186.979 23.361 187.146 21.9615 187.402 20.5205C187.585 19.4922 188.157 18.0473 188.157 17.0297C188.157 14.4069 188.8 9.00819 190.459 6.93486C191.36 5.80755 191.517 3.61376 192.157 2.25537C192.444 1.64494 193.901 5.46285 194.1 5.82159C195.966 9.17975 195.79 13.861 198.421 16.7844C198.462 16.8303 202.408 8.26524 203.252 7.18016C203.762 6.52372 204.543 4.2532 204.78 3.42525C205.011 2.61685 205.398 2.61017 205.818 2.08556C206.319 1.45898 205.822 4.47414 205.818 4.63286C205.724 7.91475 207.101 10.9735 207.176 14.2182C207.231 16.5504 207.38 18.5387 207.875 20.7658C208.446 23.3393 212.091 30.426 210.912 28.068" stroke="black" stroke-width="3" stroke-linecap="round"/>
<path d="M220.083 14.4824C216.253 14.9611 218.045 21.3259 218.045 23.6527C218.045 24.4639 218.495 27.6349 219.252 28.068C221.462 29.3307 223.939 28.7044 226.196 27.8982C230.167 26.4802 232.323 19.93 229.083 16.6901C228.251 15.8578 226.405 13.5357 225.177 13.4635C223.721 13.3778 220.608 13.5853 220.083 15.1617" stroke="black" stroke-width="3" stroke-linecap="round"/>
<path d="M238.084 2.59503C238.084 3.74317 237.065 8.60609 237.065 11.086C237.065 14.3189 237.065 17.5518 237.065 20.7846C237.065 22.9513 236.634 25.246 236.065 27.2378C235.928 27.7161 236.046 28.3824 236.046 28.8794C236.046 29.3513 236.326 27.9711 236.555 27.5586C237.151 26.4865 237.499 24.4071 237.725 23.1621C238.182 20.6478 239.123 18.872 241.065 17.1241C243.197 15.2048 244.61 16.2322 246.914 16.5203C248.959 16.7758 249.631 20.7233 249.631 22.2942C249.631 23.4896 250.055 29.1288 249.971 29.087" stroke="black" stroke-width="3" stroke-linecap="round"/>
<path d="M262.538 16.1806C258.408 15.6645 254.726 18.6191 254.726 23.1432C254.726 27.3036 259.079 28.3667 262.198 26.634C264.38 25.4218 264.132 23.5254 264.594 21.4451C264.805 20.4956 264.915 19.7427 264.915 18.7279C264.915 17.5879 264.625 16.9971 264.934 18.3883C265.402 20.4928 265.783 22.9942 267.293 24.6716C268.037 25.4988 270.748 28.5251 270.689 28.4077" stroke="black" stroke-width="3" stroke-linecap="round"/>
<path d="M277.142 15.5014C277.142 19.2638 277.292 22.8797 277.142 26.634C277.119 27.2199 276.463 28.2567 276.463 28.2567C276.463 28.2567 277.142 26.6906 277.142 25.8604C277.142 24.0957 277.469 22.6568 278.331 21.1054C279.691 18.6581 282.121 15.5014 285.294 15.5014C288.715 15.5014 288.761 20.4196 288.331 22.7847C288.117 23.9652 288.011 27.5696 288.011 26.3698C288.011 24.8223 288.35 23.2311 288.35 21.6149C288.35 19.1343 290.042 14.4824 293.105 14.4824C297.459 14.4824 298.48 16.2388 299.238 20.4073C299.439 21.5165 299.294 24.4254 299.974 25.2754C300.671 26.1474 301.053 28.2265 299.558 27.7284" stroke="black" stroke-width="3" stroke-linecap="round"/>
<path d="M310.766 20.9356C309.165 20.9356 315.334 21.8464 315.521 20.2563C315.707 18.6786 316.441 16.9111 315.106 15.5768C312.431 12.9017 309.624 12.7553 307.03 15.5014C304.542 18.1357 304.384 23.9183 308.049 25.9547C310.199 27.1491 312.276 27.0491 314.767 27.0491C315.871 27.0491 316.973 26.8864 318.05 26.6906C319.462 26.4338 319.603 26.7214 319.257 26.0302" stroke="black" stroke-width="3" stroke-linecap="round"/>
<path d="M329.447 14.1428C326.632 11.6407 323.54 16.3952 322.578 18.5581C321.285 21.4673 322.238 23.9824 324.088 26.2943C325.889 28.5455 328.828 27.0846 330.466 25.3509C332.639 23.0494 332.461 19.7191 333.692 17.0109C335.179 13.74 334.881 9.21401 334.881 5.65179C334.881 5.04622 335.028 2.15598 334.617 2.6705C333.729 3.78079 334.202 7.19661 334.202 8.53873C334.202 13.3597 333.456 17.7396 334.183 22.464C334.389 23.8063 334.933 25.8174 336.24 26.634C336.679 26.9085 338.961 28.4163 338.617 27.7284" stroke="black" stroke-width="3" stroke-linecap="round"/>
</svg>
